<svg width="22" height="22" viewBox="0 0 22 22" fill="none" xmlns="http://www.w3.org/2000/svg">
<path d="M7.5 21.5C8.32843 21.5 9 20.8285 9 20C9 19.1716 8.32843 18.5 7.5 18.5C6.67157 18.5 6 19.1716 6 20C6 20.8285 6.67157 21.5 7.5 21.5Z" fill="#2A254B"/>
<path d="M18 21.5C18.8284 21.5 19.5 20.8285 19.5 20C19.5 19.1716 18.8284 18.5 18 18.5C17.1716 18.5 16.5 19.1716 16.5 20C16.5 20.8285 17.1716 21.5 18 21.5Z" fill="#2A254B"/>
<path d="M21 4.25003H4.365L3.75 1.10003C3.71494 0.928074 3.62068 0.773857 3.48364 0.664226C3.3466 0.554595 3.17546 0.496492 3 0.500031H0V2.00003H2.385L5.25 16.4C5.28506 16.572 5.37932 16.7262 5.51636 16.8358C5.6534 16.9455 5.82454 17.0036 6 17H19.5V15.5H6.615L6 12.5H19.5C19.6734 12.5043 19.8429 12.4483 19.9796 12.3416C20.1163 12.235 20.2119 12.0842 20.25 11.915L21.75 5.16503C21.7751 5.05375 21.7745 4.9382 21.7483 4.82718C21.722 4.71616 21.6708 4.61259 21.5985 4.52436C21.5261 4.43613 21.4347 4.36556 21.3309 4.31802C21.2272 4.27048 21.114 4.24723 21 4.25003ZM18.9 11H5.715L4.665 5.75003H20.0625L18.9 11Z" fill="#2A254B"/>
</svg>
