<svg width="21" height="21" viewBox="0 0 21 21" fill="none" xmlns="http://www.w3.org/2000/svg">
<path d="M20.7499 19.6894L15.0859 14.0254C16.4469 12.3914 17.1256 10.2956 16.9808 8.17395C16.8359 6.05231 15.8787 4.06819 14.3082 2.63434C12.7378 1.20048 10.675 0.427288 8.54894 0.4756C6.42292 0.523912 4.39736 1.39001 2.89365 2.89372C1.38993 4.39744 0.523836 6.42299 0.475524 8.54902C0.427212 10.675 1.20041 12.7378 2.63426 14.3083C4.06812 15.8788 6.05224 16.836 8.17387 16.9808C10.2955 17.1257 12.3913 16.447 14.0253 15.0859L19.6894 20.75L20.7499 19.6894ZM1.99993 8.75001C1.99993 7.41499 2.39581 6.10994 3.13751 4.99991C3.87921 3.88988 4.93342 3.02471 6.16682 2.51382C7.40022 2.00293 8.75742 1.86926 10.0668 2.12971C11.3762 2.39016 12.5789 3.03303 13.5229 3.97704C14.4669 4.92104 15.1098 6.12378 15.3702 7.43315C15.6307 8.74252 15.497 10.0997 14.9861 11.3331C14.4752 12.5665 13.6101 13.6207 12.5 14.3624C11.39 15.1041 10.085 15.5 8.74993 15.5C6.96033 15.498 5.2446 14.7862 3.97916 13.5208C2.71371 12.2553 2.00192 10.5396 1.99993 8.75001Z" fill="#2A254B"/>
</svg>
